<svg width="308" height="219" viewBox="0 0 308 219" fill="none" xmlns="http://www.w3.org/2000/svg">
<path fill-rule="evenodd" clip-rule="evenodd" d="M26.4069 154.354L27.9988 169.195L34.0854 172.005L41.4361 173.831L48.6464 176.031L56.8868 177.436L66.4381 178.981L73.9293 179.683L83.5742 180.62L91.8613 181.181L100.429 181.041L109.887 181.181L118.408 180.854L128.943 180.385L139.384 179.262L148.56 178.044L158.299 176.64L167.757 174.72L175.341 172.801L173.188 167.276L172.813 163.483L173.047 159.504L174.592 156.133L176.98 153.792L180.304 151.919L215.7 140.823L218.369 140.682L221.787 141.431L224.971 143.023L227.312 145.411L229.091 148.126L230.215 151.778L231.666 156.788L242.2 153.23L251.143 149.765L259.102 146.722L267.39 143.21L274.413 140.354L281.81 136.562L288.084 133.05L292.813 130.241L290.94 125.091L288.459 118.864L285.884 111.185L283.168 103.928L280.218 97.6076L276.613 89.9291L272.306 81.7824L268.232 74.8531L262.474 64.5527L256.293 56.406L250.815 49.7107L245.431 43.2496L237.987 35.9456L230.636 28.829L222.396 22.7424L214.577 17.3581L206.898 13.0038L199.032 9.49232L190.371 6.12128L182.084 3.68664L173.188 2.23522L163.683 0.877435L154.834 0.456055L146.688 0.690155L138.213 1.39246L128.287 2.98434L119.064 4.85714L110.308 7.05768L101.74 9.39868L95.326 11.927L88.5839 15.1575L81.8887 18.3413L74.4443 23.1638L68.5918 27.6117L63.1138 32.8087L57.9636 37.7716L52.6261 42.7345L47.8037 49.0553L42.7939 55.7973L39.142 62.8672L36.005 69.6561L32.8681 78.5051L30.293 87.8222L28.3265 97.2331L27.156 104.631L25.9387 115.727L25.3769 126.074L25.0023 135.391L25.5642 144.1L26.4069 154.354ZM67.4674 67.3147L65.7351 71.8094L65.3137 74.7591L65.6883 77.5683L68.357 80.5179L71.7281 82.7185L76.4101 82.578L80.5771 80.6584L84.0886 76.866L88.1151 71.4817L93.6398 65.3951L99.1178 59.9171L105.579 55.2819L111.057 51.8641L118.829 47.5566L125.899 44.8411L132.828 42.5937L139.617 40.5804L147.857 39.4568L154.74 38.8481L161.482 38.7076L169.254 39.3631L176.23 40.159L182.457 41.3296L188.544 42.9683L195.052 45.4965L202.075 48.3994L207.928 51.7236L213.733 55.0478L218.603 58.5593L222.91 62.3986L227.498 66.6124L231.384 70.3112L235.551 75.6486L238.267 78.7856L234.287 72.4181L229.699 66.3315L225.251 60.9003L218.79 54.5796L212.656 49.7103L206.57 45.1688L200.624 41.47L193.975 38.3331L187.186 35.3834L180.07 32.7615L171.174 30.7014L162.606 29.2032L155.583 28.1731L147.389 28.4072L139.43 28.6413L131.611 29.8586L123.932 31.4505L117.144 33.5106L108.529 36.7412L101.88 39.5504L94.5294 43.7642L87.4128 48.3057L78.7979 55.2819L72.1494 62.024L67.4674 67.3147Z" fill="#589460"/>
<path d="M291.829 135.578L283.964 140.026L275.208 144.474L266.219 148.547L256.855 152.714L247.912 156.179L235.552 160.72L227.873 163.296L223.659 150.654L222.489 148.828L220.007 146.909L217.76 146.721L215.325 147.049L182.27 157.63L180.117 159.129L178.946 161.376L178.665 164.092L179.883 167.978L181.24 172.613L182.458 176.639L170.425 179.917L154.132 183.241L137.464 186.003L125.431 188.251L112.462 189.889L101.646 191.06L91.8141 192.043L82.0755 192.558L71.8688 191.575L62.5516 190.264L54.0303 188.766L44.9941 187.174L38.1583 185.02L25.751 179.636L19.1962 182.82L13.0628 185.676L0 191.669L1.6387 194.759L2.71556 196.538L4.40108 198.972L6.0866 201.126L9.59811 204.45L12.5946 206.745L16.2466 208.758L19.6176 210.771L23.0355 212.129L26.7342 213.533L31.5099 214.751L35.911 215.874L40.9675 217.092L46.0709 218.028L51.1743 218.59L56.0436 218.496L63.3475 217.373L69.6214 216.155L75.9889 214.61L84.4165 211.988L92.7505 210.022L101.225 208.243L111.01 205.574L117.893 204.544L128.755 202.531L139.383 200.377L149.59 198.27L160.171 195.929L171.502 193.214L184.33 189.796L196.878 186.003L208.771 182.164L219.352 178.746L228.856 175.188L237.05 172.098L246.273 168.165L256.855 163.764L266.031 159.644L275.536 155.055L287.428 149.156L296.886 143.35L303.207 139.183L307.093 135.953L302.972 134.923L295.06 133.284L291.829 135.578Z" fill="#589460"/>
</svg>
