<?xml version="1.0" encoding="utf-8"?>
<!-- Generator: Adobe Illustrator 24.3.0, SVG Export Plug-In . SVG Version: 6.00 Build 0)  -->
<svg version="1.1" id="Lager_1" xmlns="http://www.w3.org/2000/svg" xmlns:xlink="http://www.w3.org/1999/xlink" x="0px" y="0px"
	 viewBox="0 0 453.54 141.73" style="enable-background:new 0 0 453.54 141.73;" xml:space="preserve">
<style type="text/css">
	.st0{fill:#9D9D9C;}
	.st1{fill:none;stroke:#000000;stroke-width:0.25;}
	.st2{clip-path:url(#SVGID_2_);}
	.st3{font-family:'MinionPro-Regular';}
	.st4{font-size:56px;}
	.st5{letter-spacing:-2;}
	.st6{letter-spacing:-1;}
	.st7{fill:#FFFFFF;}
	.st8{fill:#8EBB1F;}
	.st9{font-size:16.02px;}
	.st10{font-size:8.9999px;}
</style>
<polyline class="st0" points="405.23,70.38 410.11,84.16 410.45,84.44 411.07,84.72 412.15,85.18 412.09,91.92 412.37,92.21 
	413.34,92.21 414.58,92.21 415.15,91.81 416.68,85.74 415.43,85.4 414.58,85.18 413.9,84.78 413.1,84.3 412.42,83.79 411.98,83.19 
	411.86,82.51 411.86,81.83 412.77,80.24 413.11,81.09 413.79,82.23 414.52,83 415.49,83.65 416.22,84.07 417.02,84.33 421.67,84.89 
	425.02,78.77 424.05,79.45 423.3,79.77 422.23,79.88 420.87,79.88 419.52,79.39 418.5,78.83 417.48,78.03 416.5,76.93 416.27,75.8 
	416.11,73.55 "/>
<polyline class="st1" points="405.23,70.38 410.11,84.16 410.45,84.44 411.07,84.72 412.15,85.18 412.09,91.92 412.37,92.21 
	413.34,92.21 414.58,92.21 415.15,91.81 416.68,85.74 415.43,85.4 414.58,85.18 413.9,84.78 413.1,84.3 412.42,83.79 411.98,83.19 
	411.86,82.51 411.86,81.83 412.77,80.24 413.11,81.09 413.79,82.23 414.52,83 415.49,83.65 416.22,84.07 417.02,84.33 421.67,84.89 
	425.02,78.77 424.05,79.45 423.3,79.77 422.23,79.88 420.87,79.88 419.52,79.39 418.5,78.83 417.48,78.03 416.5,76.93 416.27,75.8 
	416.11,73.55 "/>
<polyline class="st0" points="427.01,66.34 422.14,61.24 412.2,61.42 411.3,64.94 408.39,64.35 407.74,62.13 408.45,64.43 
	408.29,65.9 408.11,66.67 407.78,67.32 407.33,68.05 406.59,69.19 405.17,70.32 405.68,70.89 416.17,73.84 416.17,72.99 
	416.42,71.66 416.78,70.13 417.24,68.26 417.7,66.64 418.55,65.33 421.15,65.54 424.59,66.14 427.04,66.49 "/>
<polyline class="st1" points="427.01,66.34 422.14,61.24 412.2,61.42 411.3,64.94 408.39,64.35 407.74,62.13 408.45,64.43 
	408.29,65.9 408.11,66.67 407.78,67.32 407.33,68.05 406.59,69.19 405.17,70.32 405.68,70.89 416.17,73.84 416.17,72.99 
	416.42,71.66 416.78,70.13 417.24,68.26 417.7,66.64 418.55,65.33 421.15,65.54 424.59,66.14 427.04,66.49 "/>
<polygon class="st0" points="416,73.33 416.07,74.38 405.67,71.18 405.39,70.38 "/>
<rect x="240.79" y="59.59" class="st0" width="0.91" height="9.92"/>
<path class="st1" d="M417.52,72.46"/>
<polygon class="st0" points="406.76,59.65 407.67,61.69 408.17,63.52 408.39,64.46 408.29,65.89 407.97,66.93 407.27,68.04 
	406.5,69.19 405.79,69.73 404.55,70.59 45.8,70.65 44.83,69.74 43.98,68.61 43.3,67.65 42.96,66.74 42.68,65.49 42.62,64.24 
	42.96,62.77 44.32,59.54 "/>
<polygon class="st1" points="406.76,59.65 407.67,61.69 408.17,63.52 408.39,64.46 408.29,65.89 407.97,66.93 407.27,68.04 
	406.5,69.19 405.79,69.73 404.55,70.59 45.8,70.65 44.83,69.74 43.98,68.61 43.3,67.65 42.96,66.74 42.68,65.49 42.62,64.24 
	42.96,62.77 44.32,59.54 "/>
<polyline class="st0" points="45.69,70.71 40.81,84.48 40.47,84.77 39.85,85.05 38.77,85.5 38.83,92.25 38.54,92.53 37.58,92.53 
	36.33,92.53 35.76,92.14 34.23,86.07 35.48,85.73 36.33,85.5 37.01,85.11 37.96,84.53 38.66,83.86 38.98,83.23 39.05,82.84 
	39.05,82.16 38.15,80.57 37.81,81.42 37.28,82.26 36.56,83.01 35.42,83.97 34.46,84.48 33.89,84.65 29.24,85.22 25.9,79.1 
	26.86,79.78 27.64,80.22 29,80.39 30.44,80.29 31.4,79.72 32.42,79.15 33.44,78.36 34.46,77.51 34.69,75.07 34.7,74.24 "/>
<polyline class="st1" points="45.69,70.71 40.81,84.48 40.47,84.77 39.85,85.05 38.77,85.5 38.83,92.25 38.54,92.53 37.58,92.53 
	36.33,92.53 35.76,92.14 34.23,86.07 35.48,85.73 36.33,85.5 37.01,85.11 37.96,84.53 38.66,83.86 38.98,83.23 39.05,82.84 
	39.05,82.16 38.15,80.57 37.81,81.42 37.28,82.26 36.56,83.01 35.42,83.97 34.46,84.48 33.89,84.65 29.24,85.22 25.9,79.1 
	26.86,79.78 27.64,80.22 29,80.39 30.44,80.29 31.4,79.72 32.42,79.15 33.44,78.36 34.46,77.51 34.69,75.07 34.7,74.24 "/>
<polyline class="st0" points="23.9,66.67 28.78,61.57 38.71,61.75 39.62,65.26 42.61,64.57 42.95,62.93 42.45,64.75 42.62,66.23 
	42.95,67.12 43.13,67.65 43.59,68.38 44.42,69.51 45.74,70.65 45.23,71.22 34.67,74.21 34.5,73.47 34.22,72.06 34.05,71.15 
	33.54,68.77 33.21,66.97 32.36,65.66 32.19,65.43 26.33,66.47 23.88,66.82 "/>
<polyline class="st1" points="23.9,66.67 28.78,61.57 38.71,61.75 39.62,65.26 42.61,64.57 42.95,62.93 42.45,64.75 42.62,66.23 
	42.95,67.12 43.13,67.65 43.59,68.38 44.42,69.51 45.74,70.65 45.23,71.22 34.67,74.21 34.5,73.47 34.22,72.06 34.05,71.15 
	33.54,68.77 33.21,66.97 32.36,65.66 32.19,65.43 26.33,66.47 23.88,66.82 "/>
<polygon class="st0" points="34.7,73.67 34.91,74.62 45.23,71.6 45.53,70.7 "/>
<g>
	<defs>
		<rect id="SVGID_1_" width="453.54" height="141.73"/>
	</defs>
	<clipPath id="SVGID_2_">
		<use xlink:href="#SVGID_1_"  style="overflow:visible;"/>
	</clipPath>
	<g class="st2">
		<text transform="matrix(1 0 0 1 58.5977 123.5777)"><tspan x="0" y="0" class="st3 st4 st5">U</tspan><tspan x="39.03" y="0" class="st3 st4">t</tspan><tspan x="56.11" y="0" class="st3 st4">b</tspan><tspan x="83.94" y="0" class="st3 st4">i</tspan><tspan x="99.23" y="0" class="st3 st4">ldni</tspan><tspan x="188.61" y="0" class="st3 st4">n</tspan><tspan x="218.84" y="0" class="st3 st4">g AB</tspan></text>
	</g>
	<g class="st2">
		<text transform="matrix(1 0 0 1 60.5576 47.5294)"><tspan x="0" y="0" class="st3 st4">v</tspan><tspan x="25.48" y="0" class="st3 st4">o</tspan><tspan x="53.42" y="0" class="st3 st4">n </tspan><tspan x="96.77" y="0" class="st3 st4">B</tspan><tspan x="129.3" y="0" class="st3 st4">r</tspan><tspan x="150.08" y="0" class="st3 st4 st6">a</tspan><tspan x="173.65" y="0" class="st3 st4">un</tspan></text>
	</g>
</g>
<polygon class="st7" points="335.45,54.08 334.94,56.92 339.19,58.56 341.52,58.9 345.26,59.53 347.87,59.58 354.78,58.9 
	360.45,57.94 368.67,56.18 367.94,53.35 368.22,52.38 375.93,49.83 376.78,50.29 377.86,53.29 378.14,53.46 385.28,50.74 
	391.41,47.79 392.48,46.83 391.86,45.98 387.78,48.25 382,50.57 379.05,51.53 378.82,50.46 378.48,49.44 377.74,48.7 376.61,48.19 
	375.59,48.13 366.92,50.91 366.12,52.21 366.18,53.63 366.58,54.99 364.42,55.62 360.28,56.3 354.5,56.75 348.6,56.52 340.44,55.79 
	336.3,54.42 "/>
<polygon class="st8" points="335.46,54.49 335.12,51.32 334.94,49.13 334.82,47.27 334.9,45.29 335.02,43.08 335.28,40.71 
	335.53,39.13 335.95,37.12 336.51,35.12 337.17,33.24 337.84,31.79 338.63,30.27 339.69,28.83 340.73,27.49 341.87,26.42 
	342.96,25.37 344.14,24.26 345.38,23.3 346.97,22.28 348.4,21.59 349.84,20.91 351.22,20.37 353.04,19.86 354.91,19.39 
	356.89,18.99 359,18.65 360.81,18.5 362.55,18.45 364.45,18.55 366.47,18.84 368.37,19.15 370.14,19.66 371.99,20.38 373.68,21.13 
	375.31,22.07 376.99,23.21 378.74,24.52 380.32,26.03 381.9,27.59 383.06,28.98 384.22,30.4 385.54,32.14 386.77,34.34 
	387.64,35.83 388.57,37.56 389.34,39.2 389.96,40.56 390.54,42.1 391.09,43.74 391.62,45.08 392.02,46.18 391.01,46.78 
	389.67,47.53 388.09,48.33 386.59,48.94 384.82,49.7 383.12,50.35 381.21,51.09 378.96,51.85 378.66,50.78 378.41,49.99 
	378.03,49.42 377.53,48.9 376.85,48.56 376.12,48.41 375.56,48.43 367.99,50.8 367.29,51.21 366.78,51.71 366.44,52.43 366.4,53.27 
	366.47,54.09 366.93,55.26 365.31,55.68 363.29,56.09 361.21,56.38 359.25,56.65 357.03,56.88 354.78,56.99 352.95,57.05 
	350.93,57.03 349.1,57.05 347.33,56.93 345.28,56.74 343.67,56.58 341.64,56.25 339.87,55.96 338.33,55.48 336.77,55.1 "/>
<polygon class="st7" points="343.52,33.69 343.9,32.73 344.89,31.6 346.31,30.16 348.16,28.68 349.67,27.7 351.25,26.8 352.66,26.2 
	354.5,25.51 355.95,25.08 357.6,24.73 359.26,24.48 360.97,24.43 362.72,24.37 364.22,24.59 366.04,24.91 367.94,25.36 
	369.47,25.92 370.92,26.54 372.33,27.22 373.6,28.01 374.9,28.97 376.22,30.02 377.6,31.36 378.55,32.53 379.52,33.82 380.38,35.18 
	379.8,34.51 378.9,33.38 378.07,32.58 377.09,31.68 376.17,30.86 375.14,30.11 373.89,29.4 372.64,28.69 371.15,28.08 369.76,27.53 
	368.45,27.19 367.12,26.93 365.64,26.76 363.98,26.62 362.53,26.66 361.06,26.79 359.31,27.02 357.85,27.45 356.37,27.94 
	354.86,28.52 353.2,29.43 352.03,30.16 350.65,31.15 349.49,32.32 348.31,33.62 347.44,34.77 346.69,35.59 345.81,35.99 
	344.8,36.02 344.09,35.56 343.52,34.93 343.43,34.33 "/>
<polygon class="st8" points="392.5,46.82 394.2,47.18 395.07,47.39 394.25,48.08 392.9,48.97 390.88,50.21 388.33,51.47 
	386.3,52.46 384.34,53.34 382.08,54.28 380.11,55.12 378.36,55.78 376.33,56.54 374.07,57.26 371.53,58.09 368.85,58.89 
	366.11,59.62 363.7,60.2 361.44,60.71 359.25,61.15 356.98,61.61 354.67,62.04 353.19,62.26 351.1,62.83 349.29,63.21 347.51,63.64 
	345.71,64.19 344.36,64.52 343.01,64.79 341.46,65.03 340.41,65.05 339.32,64.92 338.23,64.73 337.15,64.47 336.21,64.22 
	335.2,63.97 334.4,63.67 333.67,63.38 332.96,62.95 332.17,62.51 331.54,62.02 330.78,61.31 330.42,60.86 330.06,60.33 
	329.83,59.96 329.49,59.29 332.27,58.02 333.59,57.4 334.98,56.73 337.63,57.88 339.09,58.33 341.02,58.67 342.84,58.99 
	344.84,59.28 347.02,59.49 349.09,59.37 351.19,59.16 353.5,58.91 356.28,58.56 358.85,58.09 362.4,57.49 365.89,56.78 
	368.46,56.09 368.19,55.22 367.9,54.23 367.65,53.41 367.71,52.83 367.96,52.34 368.42,52.03 375.48,49.76 375.99,49.7 
	376.48,49.73 377,50.15 377.25,50.54 378.15,53.24 379.79,52.69 382.44,51.71 384.34,50.97 386.35,50.09 388.27,49.21 390.13,48.27 
	391.82,47.31 "/>
<text transform="matrix(0.9659 -0.2588 0.2588 0.9659 352.8946 43.0518)"><tspan x="0" y="0" class="st3 st9">v</tspan><tspan x="7.42" y="0" class="st3 st9 st6"> </tspan><tspan x="9.47" y="0" class="st3 st9">B</tspan></text>
<text transform="matrix(0.9563 -0.2924 0.2924 0.9563 347.2441 54.5452)"><tspan x="0" y="0" class="st3 st10">U</tspan><tspan x="6.28" y="0" class="st3 st10">t</tspan><tspan x="9.03" y="0" class="st3 st10">b</tspan><tspan x="13.5" y="0" class="st3 st10">i</tspan><tspan x="15.96" y="0" class="st3 st10">ldni</tspan><tspan x="30.32" y="0" class="st3 st10">n</tspan><tspan x="35.18" y="0" class="st3 st10">g</tspan></text>
</svg>
